# xmcd
#
# Track frame offsets: 
#        150
#        16322
#        33753
#        49995
#        67303
#        84478
#        102311
#        115452
#        134653
#        147547
#        164375
#        181926
#        202051
#        216267
#        232703
#        244668
#        259756
#        279305
#        294840
#        312326
#
# Disc length: 4381 seconds
#
# Revision: 0
# Processed by: cddbd v1.5.1PL0 Copyright (c) Steve Scherf et al.
# Submitted via: ExactAudioCopy v0.95a3
#
DISCID=2d111b14
DTITLE=Kenny Rogers - 20 Greatest Hits
DYEAR=1900
DGENRE=Country
TTITLE0=Lucille
TTITLE1=Lady
TTITLE2=The Gambler
TTITLE3=Love Lifted Me
TTITLE4=We've Got Tonight
TTITLE5=Scarlet Fever
TTITLE6=Love Or Something Like It
TTITLE7=She Believes In Me
TTITLE8=Ruby, Don't Take Your Love To
TTITLE9=Don't Fall In Love With A Drea
TTITLE10=You Were A Good Friend
TTITLE11=Through The Years
TTITLE12=Daytime Friends
TTITLE13=You Decorated My Life
TTITLE14=Reuben James
TTITLE15='Tiil I Can Make It On My Own
TTITLE16=Coward Of The County
TTITLE17=I Don't Need You
TTITLE18=Something's Burning
TTITLE19=Love Will Turn You Around
EXTD=
EXTT0=
EXTT1=
EXTT2=
EXTT3=
EXTT4=
EXTT5=
EXTT6=
EXTT7=
EXTT8=
EXTT9=
EXTT10=
EXTT11=
EXTT12=
EXTT13=
EXTT14=
EXTT15=
EXTT16=
EXTT17=
EXTT18=
EXTT19=
PLAYORDER=
